<?xml version="1.0" encoding="UTF-8"?>
<!-- Generator: Adobe Illustrator 16.0.0, SVG Export Plug-In . SVG Version: 6.00 Build 0)  -->
<!DOCTYPE svg PUBLIC "-//W3C//DTD SVG 1.1//EN" "http://www.w3.org/Graphics/SVG/1.1/DTD/svg11.dtd">
<svg xmlns="http://www.w3.org/2000/svg" xmlns:xlink="http://www.w3.org/1999/xlink" id="reviser" x="0px" y="0px" viewBox="0 0 228 191.5" style="enable-background:new 0 0 228 191.5;" xml:space="preserve">
<style type="text/css">
	.pathRevise0{opacity:0.1;fill:#00A9FB;}
	.pathRevise1{fill:#11589A;}
	.pathRevise2{fill:#FFFFFF;}
	.pathRevise3{opacity:0.5;}
	.pathRevise4{fill:#03A9F5;}
	.pathRevise5{fill:#F29400;}
	.pathRevise6{fill:#F29400;stroke:#FFFFFF;stroke-width:0.2389;stroke-miterlimit:10;}
	.pathRevise7{fill:#F29400;stroke:#FFFFFF;stroke-width:0.5972;stroke-miterlimit:10;}
	.pathRevise8{fill:#FFAE73;}
	.pathRevise9{fill:#8EB2F3;}
	.pathRevise10{fill:#FF8F00;}
	.pathRevise11{opacity:0.6;fill:#F58000;}
	.pathRevise12{fill:#A8CCFF;}
	.pathRevise13{fill:#FFA05E;}
	.pathRevise14{fill:#0B3563;}
	.pathRevise15{fill:#6B98F6;}
	.pathRevise16{fill:#ACCEFC;}
	.pathRevise17{opacity:0.8;fill:#03A9F5;}
	.pathRevise18{fill:#161616;}
	.pathRevise19{fill:#282828;}
	.pathRevise20{fill:#D5D5D5;}
	.pathRevise21{opacity:0.3;}
	.pathRevise22{opacity:0.3;fill:#333333;}
	.pathRevise23{opacity:0.4;}
	.pathRevise24{fill:#840606;}
	.pathRevise25{fill:#0C0000;}
	.pathRevise26{fill:#0279A3;}
	.pathRevise27{fill:#C6C6C6;}
	.pathRevise28{fill:none;stroke:#0279A3;stroke-width:0.2261;stroke-miterlimit:10;}
	.pathRevise29{fill:none;stroke:#0279A3;stroke-width:0.2261;stroke-linecap:round;stroke-linejoin:round;stroke-miterlimit:10;}
</style>
<g>
	<path class="pathRevise0" d="M223.1,140.5c5.4-41.9-12.9-69.8-47.4-80.1C153.3,53.7,129,52.5,124,25C118.9-2.6,70,1.4,52.8,8.9   C28.4,19.5,3.2,40,4,77.9c0.8,37.9,18.1,62.6,43.7,83.1c25.6,20.5,55.8,24.9,75.9,26.6C155.6,190.3,217.4,184.4,223.1,140.5z"></path>
	<g>
		<g>
			<g>
				<path class="pathRevise1" d="M171.2,160.7H73.5c-2.4,0-4.4-2-4.4-4.4V19.5c0-2.4,2-4.4,4.4-4.4h97.7c2.4,0,4.4,2,4.4,4.4v136.8      C175.6,158.8,173.6,160.7,171.2,160.7z"></path>
				<path class="pathRevise2" d="M168.4,156.7H76.3c-1.4,0-2.6-1.2-2.6-2.6V21.7c0-1.4,1.2-2.6,2.6-2.6h92.1c1.4,0,2.6,1.2,2.6,2.6v132.4      C171,155.6,169.9,156.7,168.4,156.7z"></path>
				<path class="pathRevise1" d="M102.2,15.1v5c0,2.7,2.2,5,5,5h26.6c2.7,0,5-2.2,5-5v-5H102.2z"></path>
			</g>
			<g>
				<g>
					<rect x="95.8" y="39.7" class="pathRevise1" width="52.3" height="0.7"></rect>
					<g class="pathRevise3">
						<path class="pathRevise4" d="M144,36.6H99.8c-1,0-1.8-0.8-1.8-1.8l0,0c0-1,0.8-1.8,1.8-1.8H144c1,0,1.8,0.8,1.8,1.8l0,0        C145.8,35.8,145,36.6,144,36.6z"></path>
					</g>
				</g>
				<g>
					<g>
						<g>
							<g>
								<path class="pathRevise1" d="M98.9,66.8H83.7c-0.7,0-1.2-0.5-1.2-1.2V50.3c0-0.7,0.5-1.2,1.2-1.2h15.3c0.7,0,1.2,0.5,1.2,1.2v15.3          C100.1,66.3,99.6,66.8,98.9,66.8z M84.5,66h13.6c0.7,0,1.2-0.5,1.2-1.2V51.2c0-0.7-0.5-1.2-1.2-1.2H84.5          c-0.7,0-1.2,0.5-1.2,1.2v13.6C83.3,65.4,83.8,66,84.5,66z"></path>
							</g>
							<g>
								<path class="pathRevise5" d="M90.8,63.6c-0.4,0-0.7-0.2-0.9-0.6l-4.7-7.2c-0.4-0.6-0.2-1.3,0.4-1.7c0.6-0.4,1.3-0.2,1.7,0.4l3.7,5.7          l9.2-12.1c0.4-0.5,1.2-0.7,1.7-0.2c0.5,0.4,0.7,1.2,0.2,1.7L91.9,63.1C91.7,63.4,91.3,63.6,90.8,63.6          C90.8,63.6,90.8,63.6,90.8,63.6z"></path>
							</g>
						</g>
						<g class="pathRevise3">
							<g>
								<path class="pathRevise4" d="M156.7,53.8H107c-0.5,0-0.8-0.4-0.8-0.8l0,0c0-0.5,0.4-0.8,0.8-0.8h49.7c0.5,0,0.8,0.4,0.8,0.8l0,0          C157.5,53.4,157.2,53.8,156.7,53.8z"></path>
							</g>
							<g>
								<path class="pathRevise4" d="M156.7,58.8H107c-0.5,0-0.8-0.4-0.8-0.8l0,0c0-0.5,0.4-0.8,0.8-0.8h49.7c0.5,0,0.8,0.4,0.8,0.8l0,0          C157.5,58.4,157.2,58.8,156.7,58.8z"></path>
							</g>
							<g>
								<path class="pathRevise4" d="M150.7,63.8H107c-0.4,0-0.8-0.4-0.8-0.8V63c0-0.4,0.4-0.8,0.8-0.8h43.8c0.4,0,0.8,0.4,0.8,0.8V63          C151.6,63.5,151.2,63.8,150.7,63.8z"></path>
							</g>
						</g>
					</g>
					<g>
						<g>
							<g>
								<path class="pathRevise1" d="M98.9,94.9H83.7c-0.7,0-1.2-0.5-1.2-1.2V78.5c0-0.7,0.5-1.2,1.2-1.2h15.3c0.7,0,1.2,0.5,1.2,1.2v15.3          C100.1,94.4,99.6,94.9,98.9,94.9z M84.5,94.1h13.6c0.7,0,1.2-0.5,1.2-1.2V79.3c0-0.7-0.5-1.2-1.2-1.2H84.5          c-0.7,0-1.2,0.5-1.2,1.2v13.6C83.3,93.5,83.8,94.1,84.5,94.1z"></path>
							</g>
							<g>
								<path class="pathRevise5" d="M90.8,91.7c-0.4,0-0.7-0.2-0.9-0.6L85.2,84c-0.4-0.6-0.2-1.3,0.4-1.7c0.6-0.4,1.3-0.2,1.7,0.4l3.7,5.7          l9.2-12.1c0.4-0.5,1.2-0.7,1.7-0.2c0.5,0.4,0.7,1.2,0.2,1.7L91.9,91.2C91.7,91.6,91.3,91.7,90.8,91.7          C90.8,91.7,90.8,91.7,90.8,91.7z"></path>
							</g>
						</g>
						<g class="pathRevise3">
							<g>
								<path class="pathRevise4" d="M156.7,81.9H107c-0.5,0-0.8-0.4-0.8-0.8l0,0c0-0.5,0.4-0.8,0.8-0.8h49.7c0.5,0,0.8,0.4,0.8,0.8l0,0          C157.5,81.5,157.2,81.9,156.7,81.9z"></path>
							</g>
							<g>
								<path class="pathRevise4" d="M156.7,86.9H107c-0.5,0-0.8-0.4-0.8-0.8l0,0c0-0.5,0.4-0.8,0.8-0.8h49.7c0.5,0,0.8,0.4,0.8,0.8l0,0          C157.5,86.6,157.2,86.9,156.7,86.9z"></path>
							</g>
							<g>
								<path class="pathRevise4" d="M150.7,92H107c-0.4,0-0.8-0.4-0.8-0.8v-0.1c0-0.4,0.4-0.8,0.8-0.8h43.8c0.4,0,0.8,0.4,0.8,0.8v0.1          C151.6,91.6,151.2,92,150.7,92z"></path>
							</g>
						</g>
					</g>
					<g>
						<g>
							<g>
								<path class="pathRevise1" d="M98.9,123H83.7c-0.7,0-1.2-0.5-1.2-1.2v-15.3c0-0.7,0.5-1.2,1.2-1.2h15.3c0.7,0,1.2,0.5,1.2,1.2v15.3          C100.1,122.5,99.6,123,98.9,123z M84.5,122.2h13.6c0.7,0,1.2-0.5,1.2-1.2v-13.6c0-0.7-0.5-1.2-1.2-1.2H84.5          c-0.7,0-1.2,0.5-1.2,1.2V121C83.3,121.7,83.8,122.2,84.5,122.2z"></path>
							</g>
							<g>
								<path class="pathRevise5" d="M90.8,119.8c-0.4,0-0.7-0.2-0.9-0.6l-4.7-7.2c-0.4-0.6-0.2-1.3,0.4-1.7c0.6-0.4,1.3-0.2,1.7,0.4          l3.7,5.7l9.2-12.1c0.4-0.5,1.2-0.7,1.7-0.2c0.5,0.4,0.7,1.2,0.2,1.7l-10.3,13.5C91.7,119.7,91.3,119.9,90.8,119.8          C90.8,119.8,90.8,119.8,90.8,119.8z"></path>
							</g>
						</g>
						<g class="pathRevise3">
							<g>
								<path class="pathRevise4" d="M156.7,110H107c-0.5,0-0.8-0.4-0.8-0.8v0c0-0.5,0.4-0.8,0.8-0.8h49.7c0.5,0,0.8,0.4,0.8,0.8v0          C157.5,109.6,157.2,110,156.7,110z"></path>
							</g>
							<g>
								<path class="pathRevise4" d="M156.7,115.1H107c-0.5,0-0.8-0.4-0.8-0.8l0,0c0-0.5,0.4-0.8,0.8-0.8h49.7c0.5,0,0.8,0.4,0.8,0.8l0,0          C157.5,114.7,157.2,115.1,156.7,115.1z"></path>
							</g>
							<g>
								<path class="pathRevise4" d="M150.7,120.1H107c-0.4,0-0.8-0.4-0.8-0.8v-0.1c0-0.4,0.4-0.8,0.8-0.8h43.8c0.4,0,0.8,0.4,0.8,0.8v0.1          C151.6,119.7,151.2,120.1,150.7,120.1z"></path>
							</g>
						</g>
					</g>
				</g>
				<g>
					<g>
						<g>
							<path class="pathRevise6" d="M156.2,144.9c-2.7,2.7-6.9,3.1-10,1c-0.3-0.2-0.3-0.5-0.2-0.8c0.2-0.3,0.5-0.3,0.8-0.2         c2.7,1.8,6.3,1.4,8.6-0.9c2.3-2.3,2.7-5.9,0.9-8.6c-0.2-0.3-0.1-0.6,0.2-0.8c0.3-0.2,0.6-0.1,0.8,0.2         C159.3,138,158.8,142.2,156.2,144.9z"></path>
						</g>
						<g>
							<path class="pathRevise6" d="M144.8,143.8C144.8,143.8,144.7,143.8,144.8,143.8c-0.3,0.2-0.7,0.2-0.8-0.1c-2.1-3.1-1.7-7.4,1-10.1         c2.6-2.6,6.6-3.1,9.7-1.2c0.3,0.2,0.3,0.5,0.2,0.7c-0.2,0.3-0.5,0.3-0.7,0.2c-2.7-1.6-6.1-1.2-8.4,1c-2.3,2.3-2.7,6-0.8,8.7         C145,143.3,145,143.6,144.8,143.8z"></path>
						</g>
						<g>
							<path class="pathRevise7" d="M150.6,149.9c-5.9,0-10.6-4.8-10.6-10.6c0-5.9,4.8-10.6,10.6-10.6c5.9,0,10.6,4.8,10.6,10.6         C161.2,145.1,156.4,149.9,150.6,149.9z M150.6,130.1c-5.1,0-9.2,4.1-9.2,9.2c0,5.1,4.1,9.2,9.2,9.2c5.1,0,9.2-4.1,9.2-9.2         C159.7,134.2,155.6,130.1,150.6,130.1z"></path>
						</g>
					</g>
					<g>
						<path class="pathRevise5" d="M154.1,135.7c-0.8-0.8-1.9-1.3-3.1-1.3c-1.2,0-2.2,0.5-3.1,1.3c-1.5,1.5-1.7,3.9-0.5,5.5l-1.7,1.7        c-0.1,0.1-0.1,0.2,0,0.3l0.8,0.8c0,0,0.1,0.1,0.2,0.1s0.1,0,0.2-0.1l1.7-1.7c0.7,0.5,1.6,0.8,2.5,0.8c1.2,0,2.2-0.5,3.1-1.3        C155.8,140.1,155.8,137.4,154.1,135.7z M153.6,141.3c-0.7,0.7-1.6,1-2.5,1c-1,0-1.8-0.4-2.5-1c-1.4-1.4-1.4-3.7,0-5        c0.7-0.7,1.6-1,2.5-1c1,0,1.8,0.4,2.5,1C155,137.6,155,139.9,153.6,141.3z"></path>
						<path class="pathRevise5" d="M153,138.1l-0.1-1c-0.1-0.7-1-0.9-1.7-0.9h0h0c-0.7,0-1.7,0.2-1.7,0.9l-0.1,1c-0.4,0.2-0.6,0.5-0.6,1        c0,0.3,0.1,0.6,0.3,0.8l0,0.8c0,0,0,0.1,0.1,0.1l0.7,0c0,0,0.1,0,0.1-0.1h0v0l0-0.5l1.3,0l1.3,0l0,0.5v0h0c0,0,0,0.1,0.1,0.1        l0.7,0c0,0,0.1,0,0.1-0.1l0-0.8c0.2-0.2,0.3-0.5,0.3-0.8C153.6,138.7,153.4,138.3,153,138.1z M149.5,139.5        c-0.2,0-0.4-0.2-0.4-0.4s0.2-0.4,0.4-0.4c0.2,0,0.4,0.2,0.4,0.4C149.9,139.3,149.7,139.5,149.5,139.5z M149.8,138l0.1-0.8        c0-0.2,0.6-0.4,1.2-0.4h0h0c0.6,0,1.2,0.2,1.2,0.4l0.1,0.8c0,0-1.1,0-1.3,0C150.9,138,149.8,138,149.8,138z M152.7,139.5        c-0.2,0-0.4-0.2-0.4-0.4c0-0.2,0.2-0.4,0.4-0.4c0.2,0,0.4,0.2,0.4,0.4S152.9,139.5,152.7,139.5z"></path>
					</g>
				</g>
			</g>
		</g>
		<g>
			<path class="pathRevise8" d="M69.6,87.1c0,0,0.4-0.9,0.7-1.3c0.3-0.4,1.4-1.7,1.6-1.4c0.2,0.3,0.9,2.2,0.5,2.7c-0.4,0.5,0,1.5-2,2     L69.6,87.1z"></path>
			<path class="pathRevise9" d="M47.4,81.4c0,0,10.2,8.5,14.2,7.7c3.1-0.6,7.9-2.3,7.9-2.3l1,2.4c0,0-4.3,5.8-8.8,5.9c-7,0.1-12.2-3-12.2-3     L47.4,81.4z"></path>
			<path class="pathRevise1" d="M29.5,171.4c0,0,0.3,4.8,1.2,4.9c0.1,0,4.7,0,4.7,0l5.8,0c0,0,0-1.4-1.7-1.7c-1.7-0.3-4.6-1.5-5.6-3.8     C32.8,168.4,29.5,171.4,29.5,171.4z"></path>
			<path class="pathRevise10" d="M29.1,171.7c0,0,1.8,0.6,3.2,0.6c1.5,0,2.9-0.4,2.9-0.4s0.3-3.2,2.2-10.3c1-3.7,2.3-8.5,4.3-14.5     c5.4-16.5,7.1-26.1,7.2-27c0,0,0-0.1,0-0.1l0,0l-16.6-7.3c0,0,2.1,22.7-0.6,31.4c-0.4,1.2-0.7,2.6-1,4.2     C29.1,157.7,29.1,171.7,29.1,171.7z"></path>
			<path class="pathRevise11" d="M37.4,161.5c1-3.7,2.3-8.5,4.3-14.5c5.4-16.5,7.1-26.1,7.2-27c0,0,0-0.1,0-0.1l-16.6-7.3     c0,0,2.1,22.7-0.6,31.4C31.4,145.3,37.4,161.5,37.4,161.5z"></path>
			<path class="pathRevise1" d="M42.5,171.4c0,0,0.3,4.8,1.2,4.9c0.1,0,4.7,0,4.7,0l5.8,0c0,0,0-1.4-1.7-1.7c-1.7-0.3-4.6-1.5-5.6-3.8     C45.8,168.4,42.5,171.4,42.5,171.4z"></path>
			<path class="pathRevise10" d="M51.9,113.2c0,0,0.2,14.7-2.3,32.8c-2.5,18.1-1.7,25.7-1.7,25.7s-1.7,0.6-2.5,0.6c-1.8,0.1-3.6-0.4-3.6-0.4     s-3.6-18.1-2.6-27.1c1-9-5-31-5-31L51.9,113.2z"></path>
			<path class="pathRevise8" d="M40.1,78.8l3.2,2.1l3-0.8c0.5-0.8,0.7-2.3,0.7-3.5c0-1.3-0.1-2.4-0.1-2.4l-4.4-1.9l-1.6-0.7     c0,0,0.1,1.3,0.1,1.5C41.3,76.4,40.1,78.8,40.1,78.8z"></path>
			<path class="pathRevise12" d="M52,117.3c-4,3.9-19.3,3.2-20.3-1.1c-0.9-4.3,1-36.6,7.9-38.7c1.4-0.4,9.1,2.1,9.1,2.1s1.2,3.1,2,7.2     c0.2,0.8,0.6,9,0.9,16.8c0.2,3.6,0.3,7.1,0.4,9.7C52.1,115.6,52.1,117.2,52,117.3z"></path>
			<path class="pathRevise13" d="M41.4,73.1c0.9,1.5,4,2.8,5.7,3.4c0-1.3-0.1-2.4-0.1-2.4l-4.4-1.9C41.6,72.2,41,72.4,41.4,73.1z"></path>
			<path class="pathRevise8" d="M48.6,73.9c0,0-7.1,2.2-8.4-2.2c-1.3-4.4-3.1-7.1,1.4-8.7c4.5-1.6,5.8-0.2,6.6,1.2     C49,65.5,50.4,73.2,48.6,73.9z"></path>
			<path class="pathRevise14" d="M47.9,63.7c0,0-0.5,5.1-1.5,4.9c-1.1-0.2-2.2-0.7-2.1,0.8c0.2,1.6-1,4.2-2.6,4.2c-3.3,0-6.9-8.5-6-10.1     C38.4,59,51.7,58.1,47.9,63.7z"></path>
			<path class="pathRevise9" d="M46.9,77.7c-0.1,0-5.3-2.4-5.9-2.2c-0.6,0.2-1.4,2-1.4,2l9.1,2.1C48.7,79.6,48,78.2,46.9,77.7z"></path>
			<g>
				<path class="pathRevise1" d="M79,102.7l-29,27.3c-0.6,0.5-1.3,0.7-1.6,0.4l-1-1c-0.3-0.3-0.1-1,0.5-1.6l29-27.3c0.6-0.5,1.3-0.7,1.6-0.4      l1,1C79.8,101.5,79.6,102.2,79,102.7z"></path>
				<path class="pathRevise15" d="M62.8,118l-12.7,12c-0.6,0.5-1.3,0.7-1.6,0.4l-1-1c-0.3-0.3-0.1-1,0.5-1.6l12.7-12L62.8,118z"></path>
				<path class="pathRevise1" d="M72.4,92.4c1.1,3.7,3.2,7.1,6.2,9.9c9.1,8.6,23.5,8.2,32.1-1c8.5-9,8.2-23.1-0.6-31.7      c-0.1-0.1-0.2-0.2-0.4-0.3c-9.1-8.6-23.5-8.2-32.1,1C71.8,76.4,70.1,84.9,72.4,92.4z M78.9,71.5c5-5.3,12.1-7.4,18.8-6.3      c3.9,0.7,7.6,2.5,10.7,5.4c8.4,7.9,8.8,21.1,0.9,29.6c-2.9,3.1-6.5,5.1-10.4,6c-6.6,1.6-13.8-0.1-19.2-5.1      C71.3,93.1,70.9,79.9,78.9,71.5z"></path>
				<g class="pathRevise3">
					<path class="pathRevise16" d="M109.3,100.1c-2.9,3.1-6.5,5.1-10.4,6c-6.6,1.6-13.8-0.1-19.2-5.1c-8.4-7.9-8.8-21.1-0.9-29.6       c5-5.3,12.1-7.4,18.8-6.3c3.9,0.7,7.6,2.5,10.7,5.4C116.8,78.5,117.2,91.7,109.3,100.1z"></path>
				</g>
			</g>
			<path class="pathRevise9" d="M52,113.2c-16-11.4-14.6-26.5-14.6-26.5C43.2,90,49,97.2,51.7,103.5C51.8,107.2,52,110.7,52,113.2z"></path>
			<g>
				<path class="pathRevise8" d="M67.8,108c1.1-0.3,1.9-1.1,2-1.3c0,0,0.5,0-0.1,1.1c0,0.1-0.2,0.3-0.2,0.5c0,0.1,0,0.1,0.1,0.1      c0.6,0,1.3-0.2,2.6,0.1c0.2,0,0.2,0.4,0.2,0.6c0,0.3,0,0.6-0.3,1.1c-0.2,0.3-0.8,0.6-2,1.1c-0.5,0.2-1.8,0-3.1-0.4l-1-0.5      l0.3-1.9l0.3,0.1C66.8,108.6,67.3,108.1,67.8,108z"></path>
				<path class="pathRevise12" d="M42.3,79.6c0,0-14.3,2.7,4.2,23.5c3,3.3,19,7.6,19,7.6s1.6-1.4,0.8-2.5c0,0-11-8-13.5-9.3      c-1.1-0.6-4.2-12.8-6-15.7C45.1,80.3,42.3,79.6,42.3,79.6z"></path>
			</g>
			<path class="pathRevise8" d="M70,87.4c0,0,0.5-0.9,0.6-1.4c0.1-0.5,0.7-1.9,0.9-2.1c0.1-0.1,0.4,0,0.5,0.4c0,0.2-0.1,0.5-0.2,0.9     c-0.3,0.6-0.2,1.5-0.3,1.8C71.2,87.8,70,87.4,70,87.4z"></path>
		</g>
		<g>
			<path d="M197.9,163h-1.1l-29,7.1c0,0-4-1.9-5.4-4.9c0,0-0.6-20.6,11-22.9s19.5-1,23.5,6.1s2.6,14,2.6,14L197.9,163z"></path>
			<path d="M32.2,165.4c0,0,3.8,1,4.1,1.8c0.8,0.2,1.4-1.3,0.9-1.8l1.1-0.3l28.9,4.4c0,0,2.5-0.9,4.1-3.4L73,156l-8.6-13l-11.8-3     l-11,4.5l-6.7,12L32.2,165.4z"></path>
			<path class="pathRevise2" d="M210.7,154.6c0-1.2-0.5-8.3-0.5-8.3c-0.4-1.4-2.9-2.4-2.9-2.4c-2.1-0.9-2.5-2-2.5-2c-1.2-2,0.8-5,0.8-5     c1.8-2.5-0.1-4.2-0.1-4.2c1.3-1.7,0.2-4,0.2-4c-1.9-2.4-5.1-4.5-5.1-4.5c-3.5,0-5.1-1.6-5.1-1.6l-9.9-6.3l-6.8-4.1     c-3-1.7-3.5-2.8-3.5-2.8l-0.5-0.8l-1-0.6c-2.6-0.4-11.4-1.3-11.4-1.3c-4.4-0.7-17.7-1.2-17.7-1.2c-8.3-0.4-28.3,0.5-28.3,0.5     c-6.4,0.5-13.3,2.3-13.3,2.3c-5,1.9-16.2,7.2-16.2,7.2c-16.9,9.7-19.4,11.7-19.4,11.7h-2.3l-4.8,0.2c-18.3,1.7-23.6,3-23.6,3     c-8,1.3-13.6,6.3-13.6,6.3c-3.1,2.5-3.9,4.3-3.9,4.3c-1.5,2.9-1.8,11-1.8,11c-0.1,1.3,0.5,4.5,0.5,4.5c0.5,0.7,0.5,2.2,0.5,2.2     l-0.8,3.1c-1.5,2.1,1.2,2.2,1.2,2.2l7.2,1.1c2.2-0.1,6.8,0.5,6.8,0.5l2.8-0.9c-0.9-6.4,2.3-13.8,2.3-13.8c8.9-15.8,25.5-7,25.5-7     c13,7.2,7.7,22.2,7.7,22.2h12.1l70.3-0.7l8.7-0.1c-1.5-15.2,8.7-22.1,8.7-22.1c12.4-6.6,22.7,1.5,22.7,1.5     c8.3,7.7,4.4,18.7,4.4,18.7c8.4-0.8,8.7-1,9.3-1.6s2.3-3.5,2.3-3.5C210.8,157.2,210.7,154.6,210.7,154.6z M123.7,126.6l-32.5,1.7     c0,0-0.5-6.9-3-7.1v-0.6c0,0,15-12.1,39.9-11.5L123.7,126.6z M160.4,125.4l-26.6,0.8l1.1-17.6c0,0,21.8,0.7,26.2,2.3L160.4,125.4     z M166.3,124.9l-4.4,0.2l0.6-14.1c2.2,0.1,4.6,1.5,4.6,1.5c2.9,1.9,2.5,7.8,2.5,7.8C170,125.3,166.3,124.9,166.3,124.9z"></path>
			<path class="pathRevise17" d="M210.7,154.6c0-1.2-0.5-8.3-0.5-8.3c-0.4-1.4-2.9-2.4-2.9-2.4c-2.1-0.9-2.5-2-2.5-2c-1.2-2,0.8-5,0.8-5     c1.8-2.5-0.1-4.2-0.1-4.2c1.3-1.7,0.2-4,0.2-4c-1.9-2.4-5.1-4.5-5.1-4.5c-3.5,0-5.1-1.6-5.1-1.6l-9.9-6.3l-6.8-4.1     c-3-1.7-3.5-2.8-3.5-2.8l-0.5-0.8l-1-0.6c-2.6-0.4-11.4-1.3-11.4-1.3c-4.4-0.7-17.7-1.2-17.7-1.2c-8.3-0.4-28.3,0.5-28.3,0.5     c-6.4,0.5-13.3,2.3-13.3,2.3c-5,1.9-16.2,7.2-16.2,7.2c-16.9,9.7-19.4,11.7-19.4,11.7h-2.3l-4.8,0.2c-18.3,1.7-23.6,3-23.6,3     c-8,1.3-13.6,6.3-13.6,6.3c-3.1,2.5-3.9,4.3-3.9,4.3c-1.5,2.9-1.8,11-1.8,11c-0.1,1.3,0.5,4.5,0.5,4.5c0.5,0.7,0.5,2.2,0.5,2.2     l-0.8,3.1c-1.5,2.1,1.2,2.2,1.2,2.2l7.2,1.1c2.2-0.1,6.8,0.5,6.8,0.5l2.8-0.9c-0.9-6.4,2.3-13.8,2.3-13.8c8.9-15.8,25.5-7,25.5-7     c13,7.2,7.7,22.2,7.7,22.2h12.1l70.3-0.7l8.7-0.1c-1.5-15.2,8.7-22.1,8.7-22.1c12.4-6.6,22.7,1.5,22.7,1.5     c8.3,7.7,4.4,18.7,4.4,18.7c8.4-0.8,8.7-1,9.3-1.6s2.3-3.5,2.3-3.5C210.8,157.2,210.7,154.6,210.7,154.6z M123.7,126.6l-32.5,1.7     c0,0-0.5-6.9-3-7.1v-0.6c0,0,15-12.1,39.9-11.5L123.7,126.6z M160.4,125.4l-26.6,0.8l1.1-17.6c0,0,21.8,0.7,26.2,2.3L160.4,125.4     z M166.3,124.9l-4.4,0.2l0.6-14.1c2.2,0.1,4.6,1.5,4.6,1.5c2.9,1.9,2.5,7.8,2.5,7.8C170,125.3,166.3,124.9,166.3,124.9z"></path>
			<g>
				<path class="pathRevise18" d="M198.1,163.3l3.6-0.4v-6.6c0,0-0.6-9.7-8.5-15.1c0,0-9.1-6.7-21.9-1.5c0,0-10.4,4.2-11.2,18.3v7.2h3.6      c0,0-2.2-15.8,10.1-21.4c0,0,11.3-5.7,20.6,4.3C194.2,148.2,199.3,153.5,198.1,163.3z"></path>
				<path class="pathRevise18" d="M74.8,165.8h-3.4c0,0,2.8-17.2-12.2-22.4c0,0-12.6-4.2-19.8,7.4c0,0-3.8,5.1-2.4,15l-3.7-0.4      c0,0-3.1-18.1,12-25.4c0,0,16.5-6.7,25.9,7.5C71.1,147.5,76.1,154.1,74.8,165.8z"></path>
			</g>
			<g>
				<ellipse class="pathRevise18" cx="54" cy="160.7" rx="15.9" ry="15.6"></ellipse>
				<g>
					<circle class="pathRevise19" cx="54" cy="160.6" r="6.5"></circle>
					<g>
						<polygon class="pathRevise20" points="51.6,149.6 53.1,157.6 53.6,158.1 53.6,149.2       "></polygon>
						<polygon class="pathRevise20" points="45.2,153 46.3,152.2 51.3,155.8 51.3,156.8       "></polygon>
						<path class="pathRevise19" d="M51.6,149.6l-5.3,2.7l5,3.6v1l1.2,0.6l0.6,0.2L51.6,149.6z M48.9,151.2l1.3-0.8l0.5,2.4L48.9,151.2z"></path>
					</g>
					<g>
						<polygon class="pathRevise20" points="58.5,149.9 56.8,157 57.9,156.3 59.5,150.4       "></polygon>
						<polygon class="pathRevise20" points="56.3,159.2 63.5,155.1 64.3,156.7 56.3,159.9       "></polygon>
						<path class="pathRevise19" d="M59.4,150.8l-1.6,5.5l-1.1,0.8l-0.4,2.2l7.1-4.2C63.9,153.8,59.4,150.8,59.4,150.8z M60.5,155.1l0.8-2.2        l1.3,1.2L60.5,155.1z"></path>
					</g>
					<g>
						<polygon class="pathRevise20" points="58.4,162.3 59,163.1 65.4,162.7 65.4,161.6       "></polygon>
						<polygon class="pathRevise20" points="56.2,163.3 56.8,162.8 62.6,168.2 61,169.6       "></polygon>
						<path class="pathRevise19" d="M65,162.8l-6,0.3l-1.2-1.1l-1.1,0.8l5.8,5.5C62.6,168.2,65.6,164.2,65,162.8z M63.1,167l-1.9-1.8        l2.9,0.2L63.1,167z"></path>
					</g>
					<g>
						<polygon class="pathRevise20" points="53.6,165.4 53.1,166.2 55.5,172 56.5,171.7       "></polygon>
						<polygon class="pathRevise20" points="47.6,169.9 49.5,171.1 53.1,163.3 51.9,163.7       "></polygon>
						<path class="pathRevise19" d="M53.1,166.2l0.5-0.8l-0.5-2l-3.6,7.8c0,0,2.7,0.9,6,0.7L53.1,166.2z M50.8,171.1l1.2-2.2l0.5,2.6        C52.5,171.5,50.7,171.3,50.8,171.1z"></path>
					</g>
					<g>
						<polygon class="pathRevise20" points="48.2,161.6 49.4,161.7 44.1,166.7 43.7,165.4       "></polygon>
						<polygon class="pathRevise20" points="42.8,157.5 42.5,159.5 50.8,160.6 51.5,159.9       "></polygon>
						<path class="pathRevise19" d="M42.5,159.5c0,0,0.3,4.7,1.2,5.8l4.6-3.8l1.2,0.2l1.4-1.2L42.5,159.5z M43,162.8        c-0.3-0.2-0.3-1.9-0.3-1.9l2.9,0.5L43,162.8z"></path>
					</g>
					<circle class="pathRevise20" cx="54" cy="160.6" r="3.9"></circle>
					<g>
						<g>
							<path class="pathRevise20" d="M54,149.6c6,0,11,4.9,11,11s-4.9,11-11,11s-11-4.9-11-11S47.9,149.6,54,149.6 M54,148.7         c-6.5,0-11.9,5.3-11.9,11.9s5.3,11.9,11.9,11.9c6.5,0,11.9-5.3,11.9-11.9S60.5,148.7,54,148.7L54,148.7z"></path>
						</g>
					</g>
				</g>
			</g>
			<g>
				<ellipse class="pathRevise18" cx="180.9" cy="160.7" rx="15.9" ry="15.6"></ellipse>
				<g>
					<circle class="pathRevise19" cx="180.8" cy="160.6" r="6.5"></circle>
					<g>
						<polygon class="pathRevise20" points="178.5,149.6 180,157.7 180.5,158.1 180.5,149.2       "></polygon>
						<polygon class="pathRevise20" points="172.1,153 173.2,152.3 178.2,155.8 178.2,156.8       "></polygon>
						<path class="pathRevise19" d="M178.5,149.6l-5.3,2.7l5,3.6v1l1.2,0.6l0.6,0.2L178.5,149.6z M175.8,151.2l1.3-0.8l0.5,2.4L175.8,151.2z        "></path>
					</g>
					<g>
						<polygon class="pathRevise20" points="185.4,149.9 183.6,157.1 184.7,156.3 186.4,150.4       "></polygon>
						<polygon class="pathRevise20" points="183.2,159.3 190.4,155.1 191.2,156.7 183.2,159.9       "></polygon>
						<path class="pathRevise19" d="M186.3,150.8l-1.6,5.5l-1.1,0.8l-0.4,2.2l7.1-4.2C190.8,153.8,186.3,150.8,186.3,150.8z M187.4,155.1        l0.8-2.2l1.3,1.2L187.4,155.1z"></path>
					</g>
					<g>
						<polygon class="pathRevise20" points="185.3,162.3 185.9,163.1 192.3,162.7 192.3,161.6       "></polygon>
						<polygon class="pathRevise20" points="183.1,163.3 183.6,162.8 189.4,168.2 187.9,169.6       "></polygon>
						<path class="pathRevise19" d="M191.9,162.8l-6,0.3l-1.2-1.1l-1.1,0.8l5.8,5.5C189.4,168.2,192.4,164.2,191.9,162.8z M190,167l-1.9-1.8        l2.9,0.2L190,167z"></path>
					</g>
					<g>
						<polygon class="pathRevise20" points="180.5,165.4 180,166.2 182.4,172 183.4,171.7       "></polygon>
						<polygon class="pathRevise20" points="174.5,169.9 176.4,171.1 180,163.3 178.8,163.7       "></polygon>
						<path class="pathRevise19" d="M180,166.2l0.5-0.8l-0.5-2l-3.6,7.8c0,0,2.7,0.9,6,0.7L180,166.2z M177.7,171.1l1.2-2.2l0.5,2.6        C179.4,171.5,177.6,171.3,177.7,171.1z"></path>
					</g>
					<g>
						<polygon class="pathRevise20" points="175.1,161.6 176.3,161.8 170.9,166.7 170.5,165.4       "></polygon>
						<polygon class="pathRevise20" points="169.7,157.5 169.4,159.6 177.7,160.6 178.4,159.9       "></polygon>
						<path class="pathRevise19" d="M169.4,159.6c0,0,0.3,4.7,1.2,5.8l4.6-3.8l1.2,0.2l1.4-1.2L169.4,159.6z M169.9,162.8        c-0.3-0.2-0.3-1.9-0.3-1.9l2.9,0.5L169.9,162.8z"></path>
					</g>
					<circle class="pathRevise20" cx="180.8" cy="160.6" r="3.9"></circle>
					<g>
						<g>
							<path class="pathRevise20" d="M180.8,149.6c6,0,11,4.9,11,11s-4.9,11-11,11s-11-4.9-11-11S174.8,149.6,180.8,149.6 M180.8,148.7         c-6.5,0-11.9,5.3-11.9,11.9c0,6.5,5.3,11.9,11.9,11.9c6.5,0,11.9-5.3,11.9-11.9C192.7,154,187.4,148.7,180.8,148.7         L180.8,148.7z"></path>
						</g>
					</g>
				</g>
			</g>
			<g>
				<path d="M167.4,111.2c-5.4-2.7-23.3-3.2-23.3-3.2c-15.6-0.8-28.2,0.6-28.2,0.6c-13.5,1.4-21.6,6.9-30.9,12.6      c-9.3,5.7-9.1,8.6-9.1,8.6l14.2-0.8l38.5-1.9l37.1-1.4c5.9,0.3,5.4-5.9,5.4-5.9C171.4,112.4,167.4,111.2,167.4,111.2z       M123.7,126.6l-32.5,1.7c0,0-3.8-3.1-3-7.1v-0.6c0,0,15-12.1,39.9-11.5L123.7,126.6z M160.4,125.4l-26.6,0.8l1.1-17.6      c0,0,21.8,0.7,26.2,2.3L160.4,125.4z M166.3,124.9l-4.4,0.2l0.6-14.1c2.2,0.1,4.6,1.5,4.6,1.5c2.9,1.9,2.5,7.8,2.5,7.8      C170,125.3,166.3,124.9,166.3,124.9z"></path>
				<path class="pathRevise4" d="M76.7,129.1l8.1,0l-3.1-2.6C81.7,126.5,77.7,127.2,76.7,129.1z"></path>
				<path class="pathRevise4" d="M81.7,126.5c0,0-0.5-2.4,1.5-3.1l3.6-2.2c0,0,2.6-0.4,3.7,0.9c0,0,1.3,1.2,1.2,2.7l-0.1,2.9      c0,0-0.1,1.2-4.3,1.3C87.2,129,81.7,130,81.7,126.5z"></path>
				<g class="pathRevise21">
					<path d="M162.5,110.9l-0.6,14.1l4.4-0.2c0,0,3.7,0.4,3.3-4.7c0,0,0.4-5.9-2.5-7.8C167.1,112.4,164.7,111,162.5,110.9z"></path>
					<path d="M161.1,110.9l-0.8,14.5l-26.6,0.8l1.1-17.6C135,108.6,156.8,109.3,161.1,110.9z"></path>
				</g>
				<path class="pathRevise22" d="M88.2,120.5v0.6c2.5,0.2,3,7.1,3,7.1l32.5-1.7l4.4-17.5C103.2,108.4,88.2,120.5,88.2,120.5z"></path>
			</g>
			<g>
				<path d="M185.3,116.1l0.4-3c0,0,3.2-1.5,4.1-3.2c0,0,0.5-0.4-1.7-0.3l-13.5-1C174.6,108.6,175.5,111.6,185.3,116.1z"></path>
				<path class="pathRevise23" d="M185.3,116.1l0.2-1.5c0,0,6.7,3.6,11.2,6.9c0,0,3,1.9,3.9,2.6c0,0-3.1,0.1-5.1-1.6      C195.4,122.6,189.7,119.1,185.3,116.1z"></path>
				<path d="M197,121.8c0,0,1.4-0.6,2,0c0.6,0.6-0.1,1.2-0.1,1.2L197,121.8z"></path>
			</g>
			<path class="pathRevise24" d="M205.4,132.7c0,0,1.3-1.9,0.2-4c0,0-0.6-1.6-3.2-2.1c0,0-5.3-1.8-10.1-1.1c0,0-1.7,0.5-2.3,1.4     c0,0-0.9,0.9,1.3,2c0,0,5.1,3.5,8.4,4C199.7,132.8,203.4,133.1,205.4,132.7z"></path>
			<g>
				<path class="pathRevise25" d="M210.1,148.1l-2.1,8.3c0,0-0.4,0.6-0.4,5.3c0,0,1.9-2.1,3-5.6C210.6,156,211,153.3,210.1,148.1z"></path>
				<path class="pathRevise24" d="M208.2,157.1l-0.3,1.5c0,0,1.4,0.2,2-1l0.4-0.9L208.2,157.1z"></path>
			</g>
			<g>
				<g>
					<path class="pathRevise26" d="M150.9,135.3c0,0,3.5-3.7,12.7-1.9c0,0,2.7,1.9-2,3.9C154.2,138.4,150.4,136.3,150.9,135.3z"></path>
					<path class="pathRevise4" d="M154.6,134.3l6.2-0.2l3.1,0.1c0,0,0.5,1.6-2.3,2.2h-9.2c0,0-0.9-0.5-0.7-1.1       C151.9,134.7,154.6,134.3,154.6,134.3z"></path>
				</g>
				<g>
					<path class="pathRevise26" d="M111.8,136.6c0,0,3.5-3.7,12.7-1.9c0,0,2.7,1.9-2,3.9C115.1,139.7,111.3,137.5,111.8,136.6z"></path>
					<path class="pathRevise4" d="M115.5,135.5l6.2-0.2l3.1,0.1c0,0,0.5,1.6-2.3,2.2h-9.2c0,0-0.9-0.5-0.7-1.1       C112.8,135.9,115.5,135.5,115.5,135.5z"></path>
				</g>
			</g>
			<g>
				<path d="M162.3,106.8l4.8,0.3c0,0,0.4-0.4,1.4-2.2l4.2-5.6c0,0,0.2-0.5-0.5-0.3c-0.7,0.2-4.5,5.9-4.5,5.9      S163.8,104.3,162.3,106.8z"></path>
				<path class="pathRevise27" d="M67.5,127l5.4-0.5c0,0,16.4-12.3,30.1-17l-2.6-0.4C100.4,109.1,81,117,67.5,127z"></path>
				<path d="M103,109.6l-2.6-0.4c0,0,5.9-3.2,23.3-3.7s31.2,0.3,38.7,1.1l11.3,1.4l1.2,0.7c0,0-7.4-0.9-16.3-1.7c0,0-8-1-25.6-1.1      C132.9,105.8,115.2,105.4,103,109.6z"></path>
			</g>
			<path class="pathRevise26" d="M20.7,139.9c0,0,4.1-4.1,20.9-5.6c0,0-8.7,8.1-11.7,8.7l-6.9-1.4l-2.3-0.1l0.6-0.9L20.7,139.9z"></path>
			<g>
				<path class="pathRevise28" d="M179.7,128.3h5.8c0,0,3.3,1.4,4.3,3.3c-0.6,5-2.9,5.3-2.9,5.3s-5.9,0.7-9.6,0c0,0-1.9-0.3-1.1-2.9      C176.9,131.4,178.4,128.3,179.7,128.3z"></path>
				<path class="pathRevise29" d="M65.6,127.3c0,0-1.1,1.3-2.9,3.1c-1.8,1.8-5.3,2-5.3,2l-15.6,1.8c-14.5,1.3-21.5,5.9-21.5,5.9      s-0.4,0.2-0.6,0.6"></path>
				<path class="pathRevise28" d="M75.7,129.8c0,0-2.8,5.1-2.3,6.8c0,0-0.8,2.9,1.6,16.3l2.1,9.7l50.2-0.7l21.7-0.4c0,0,6-0.1,7.5-3.1      c1.6-2.3,2.4-4,11.1-21.3l2.9-6l0.7-2.2c0,0,0.5-1.3,0-2.8l-1.1-2.2"></path>
				<path class="pathRevise28" d="M128.5,127.3c0,0-1.3,5.8-1.4,11.8c0,0-0.5,14.6,0.2,22.7"></path>
			</g>
			<g>
				<path class="pathRevise2" d="M28.4,143.2L30,143c0,0-2.4,2.5-3.4,5.5c0,0-1.4,4.1-2.4,10l-0.7,0.3c0,0,0.6-7.6,2.8-12.3      C26.3,146.5,27.4,144.5,28.4,143.2z"></path>
				<path class="pathRevise2" d="M41.6,134.3c0,0-14.4,0.1-18.2,5.4c0,0-0.8,2.1,0,4.2l4.8-0.7c0,0,3.4-0.3,3.9-1.2L41.6,134.3z"></path>
			</g>
		</g>
	</g>
</g>
</svg>
